<svg viewBox="0 0 24 24" height="16" width="16" xmlns="http://www.w3.org/2000/svg">
  <path
     d="m 10.7,11.8 a 2.8,2.8 0 1 1 -5.6,0 2.8,2.8 0 0 1 5.6,0 z M 7.9,16.7 A 4.9,4.9 0 0 0 3,21.6 h 9.8 A 4.9,4.9 0 0 0 7.9,16.7 Z"
     style="fill:#616161;stroke-width:0.7" />
  <path
     style="fill:none;stroke:#616161;stroke-width:0.40034;stroke-linecap:butt;stroke-linejoin:round;"
     d="m 13.065907,1.70017 c -1.245369,0 -2.24871,0.9621562 -2.24871,2.1595799 V 5.334398 c 0,0.4934972 0.02656,0.7291114 0.02139,1.0859711 l 0.0044,0.020062 -0.142832,1.7691481 1.75697,-0.6568197 -0.0024,0.00409 c 0.217903,-0.086873 0.275692,-0.060299 0.611148,-0.060299 h 5.422419 c 1.24537,0 2.246052,-0.9647123 2.246052,-2.1621356 v -1.474665 c 0,-1.1974237 -1.000682,-2.1595799 -2.246052,-2.1595799 z" />
  <path
     style="fill:#616161;stroke-width:1.09045;stroke-linejoin:round"
     d="m 13.947228,4.8017991 a 0.375,0.375 0 0 1 -0.375,0.375 0.375,0.375 0 0 1 -0.375,-0.375 0.375,0.375 0 0 1 0.375,-0.375 0.375,0.375 0 0 1 0.375,0.375 z" />
  <path
     style="fill:#616161;stroke-width:1.09045;stroke-linejoin:round"
     d="m 16.947228,4.8017991 a 0.375,0.375 0 0 1 -0.375,0.375 0.375,0.375 0 0 1 -0.375,-0.375 0.375,0.375 0 0 1 0.375,-0.375 0.375,0.375 0 0 1 0.375,0.375 z" />
  <path
     style="fill:#616161;stroke-width:1.09045;stroke-linejoin:round"
     d="m 18.447228,4.8017991 a 0.375,0.375 0 0 1 -0.375,0.375 0.375,0.375 0 0 1 -0.375,-0.375 0.375,0.375 0 0 1 0.375,-0.375 0.375,0.375 0 0 1 0.375,0.375 z" />
  <path
     style="fill:#616161;stroke-width:1.09045;stroke-linejoin:round"
     d="m 15.447228,4.8017991 a 0.375,0.375 0 0 1 -0.375,0.375 0.375,0.375 0 0 1 -0.375,-0.375 0.375,0.375 0 0 1 0.375,-0.375 0.375,0.375 0 0 1 0.375,0.375 z" />
</svg>
